<svg width="29" height="30" viewBox="0 0 29 30" fill="none" xmlns="http://www.w3.org/2000/svg">
<g clip-path="url(#clip0_156_1054)">
<circle cx="14.5" cy="15.1326" r="13.5" stroke="white" stroke-width="2"/>
<path d="M12.544 23.6326V13.9966H10.816V11.3686H12.544V9.47257C12.544 8.51257 12.796 7.78457 13.3 7.28857C13.812 6.79257 14.552 6.54457 15.52 6.54457C16.064 6.54457 16.548 6.59657 16.972 6.70057C17.404 6.79657 17.816 6.94457 18.208 7.14457V9.59257C17.88 9.45657 17.568 9.35257 17.272 9.28057C16.976 9.20057 16.704 9.16057 16.456 9.16057C16.152 9.16057 15.924 9.23657 15.772 9.38857C15.62 9.53257 15.544 9.75657 15.544 10.0606V11.3686H18.208V13.9966H15.544V23.6326H12.544Z" fill="white"/>
</g>
<defs>
<clipPath id="clip0_156_1054">
<rect width="29" height="29.7746" fill="white" transform="translate(0 0.0534668)"/>
</clipPath>
</defs>
</svg>
