<svg width="34" height="35" viewBox="0 0 34 35" fill="none" xmlns="http://www.w3.org/2000/svg">
<path d="M16.9996 2.70679C9.08429 2.70679 2.64453 9.32236 2.64453 17.454C2.64453 25.5857 9.08429 32.2012 16.9996 32.2012C24.9152 32.2012 31.3549 25.5857 31.3549 17.454C31.3549 9.32236 24.9149 2.70679 16.9996 2.70679ZM16.9996 30.7467C9.8649 30.7467 4.06038 24.7835 4.06038 17.454C4.06038 10.1245 9.8649 4.16129 16.9996 4.16129C24.1343 4.16129 29.9391 10.1245 29.9391 17.454C29.9391 24.7835 24.1343 30.7467 16.9996 30.7467Z" fill="white"/>
<path d="M21.4912 10.3516H12.5077C11.1827 10.3516 10.1045 11.4589 10.1045 12.8203V22.0916C10.1045 23.4528 11.1824 24.5604 12.5077 24.5604H21.491C22.816 24.5604 23.8942 23.453 23.8942 22.0916V12.8201C23.8942 11.4589 22.8162 10.3516 21.4912 10.3516ZM19.0774 17.4297C19.0774 18.6068 18.1453 19.5644 16.9994 19.5644C15.8536 19.5644 14.9215 18.6068 14.9215 17.4297C14.9215 16.8457 15.1513 16.3162 15.5222 15.9306H18.4764C18.8478 16.3162 19.0774 16.8457 19.0774 17.4297ZM19.6799 12.3268H21.7848V14.5544H19.6799V12.3268ZM21.4912 23.1056H12.5077C11.9633 23.1056 11.5203 22.6506 11.5203 22.0914V15.9306H13.8291C13.6236 16.3875 13.5056 16.8942 13.5056 17.4297C13.5056 19.409 15.0729 21.0189 16.9994 21.0189C18.926 21.0189 20.4933 19.4088 20.4933 17.4297C20.4933 16.8942 20.3753 16.3875 20.1698 15.9306H22.4783V22.0914C22.4783 22.6506 22.0354 23.1056 21.4912 23.1056Z" fill="white"/>
</svg>
