<svg width="34" height="35" viewBox="0 0 34 35" fill="none" xmlns="http://www.w3.org/2000/svg">
<path d="M16.9996 2.70679C9.08429 2.70679 2.64453 9.32236 2.64453 17.454C2.64453 25.5859 9.08429 32.2012 16.9996 32.2012C24.9152 32.2012 31.3552 25.5859 31.3552 17.454C31.3549 9.32236 24.9149 2.70679 16.9996 2.70679ZM16.9996 30.7467C9.8649 30.7467 4.06038 24.7838 4.06038 17.454C4.06038 10.1245 9.8649 4.16129 16.9996 4.16129C24.1343 4.16129 29.9393 10.1245 29.9393 17.454C29.9391 24.7838 24.1343 30.7467 16.9996 30.7467Z" fill="white"/>
<path d="M13.031 14.3293H9.70898V23.2343H13.031V14.3293Z" fill="white"/>
<path d="M11.3366 12.9088C12.2652 12.9088 13.0179 12.2033 13.0179 11.333C13.0179 10.4628 12.2652 9.75732 11.3366 9.75732C10.408 9.75732 9.65527 10.4628 9.65527 11.333C9.65527 12.2033 10.408 12.9088 11.3366 12.9088Z" fill="white"/>
<path d="M21.3814 14.1282C20.7011 14.1282 20.1246 14.2554 19.6508 14.5097C19.1774 14.7643 18.7097 15.1875 18.247 15.78V14.3294H15.1533V23.2343H18.4754V18.9579C18.4754 18.1472 18.6007 17.5858 18.8511 17.2726C19.1014 16.9596 19.4275 16.803 19.8303 16.803C20.1949 16.803 20.4779 16.9191 20.6794 17.1511C20.8809 17.3831 20.9812 17.7785 20.9812 18.3378V23.2343H24.3198V17.5746C24.3198 16.4006 24.0597 15.5327 23.5399 14.9708C23.0207 14.4089 22.3008 14.1282 21.3814 14.1282Z" fill="white"/>
</svg>
