<svg width="19" height="20" viewBox="0 0 19 20" fill="none" xmlns="http://www.w3.org/2000/svg">
<path d="M7.3854 0C3.30693 0 0 3.30693 0 7.38543C0 11.4639 3.30693 14.7709 7.38543 14.7709C8.95377 14.7709 10.4082 14.2817 11.6038 13.4484L11.6047 13.4476L17.082 18.9249C17.1837 19.0266 17.3453 19.0292 17.4496 18.9249L18.9258 17.4487C19.0275 17.3471 19.0222 17.1785 18.9249 17.0812L13.4484 11.6047C14.2816 10.4082 14.7708 8.95374 14.7708 7.38543C14.7708 3.30693 11.4639 0 7.3854 0ZM7.3854 13.0331C4.26613 13.0331 1.73772 10.5047 1.73772 7.38543C1.73772 4.26616 4.26616 1.73775 7.3854 1.73775C10.5046 1.73775 13.0331 4.26616 13.0331 7.38543C13.0331 10.5047 10.5047 13.0331 7.3854 13.0331Z" fill="white"/>
</svg>
