<svg width="18" height="19" viewBox="0 0 18 19" fill="none" xmlns="http://www.w3.org/2000/svg">
<path d="M9.13654 0.250977C5.76416 0.250977 3.01154 2.91894 3.01154 6.18761C3.01154 8.23052 4.0888 10.0482 5.71857 11.1171C2.59732 12.4146 0.386536 15.4159 0.386536 18.909H2.13654C2.13654 15.1514 5.2597 12.1242 9.13654 12.1242C13.0134 12.1242 16.1365 15.1514 16.1365 18.909H17.8865C17.8865 15.4159 15.6757 12.4146 12.5545 11.1171C14.1843 10.0482 15.2615 8.23052 15.2615 6.18761C15.2615 2.91894 12.5089 0.250977 9.13654 0.250977ZM9.13654 1.94716C11.5631 1.94716 13.5115 3.83563 13.5115 6.18761C13.5115 8.53959 11.5631 10.4281 9.13654 10.4281C6.70993 10.4281 4.76154 8.53959 4.76154 6.18761C4.76154 3.83563 6.70993 1.94716 9.13654 1.94716Z" fill="#333333"/>
</svg>
