<svg width="35" height="35" viewBox="0 0 35 35" fill="none" xmlns="http://www.w3.org/2000/svg">
<path d="M27.192 21.6015H13.1694C12.9367 21.6019 12.7109 21.5231 12.5289 21.3782C12.3469 21.2332 12.2196 21.0306 12.168 20.8038L9.80682 10.517C9.77228 10.3668 9.77207 10.2107 9.80622 10.0603C9.84036 9.90995 9.90796 9.76923 10.004 9.64861C10.1001 9.528 10.2221 9.4306 10.361 9.36365C10.4998 9.29671 10.652 9.26195 10.8062 9.26197H29.5552C29.7095 9.26164 29.8619 9.29618 30.0011 9.36298C30.1402 9.42979 30.2625 9.52716 30.3588 9.64781C30.4551 9.76846 30.5229 9.90929 30.5571 10.0598C30.5914 10.2103 30.5912 10.3666 30.5566 10.517L28.1914 20.8038C28.1398 21.0303 28.0128 21.2326 27.8313 21.3775C27.6497 21.5224 27.4243 21.6014 27.192 21.6015ZM13.9856 19.5507H26.3758L28.2673 11.3148H12.0934L13.9856 19.5507Z" fill="white"/>
<path d="M15.1758 30.7617C14.3986 30.7617 13.6389 30.5312 12.9928 30.0995C12.3466 29.6677 11.843 29.054 11.5456 28.3361C11.2482 27.6181 11.1703 26.828 11.322 26.0658C11.4736 25.3036 11.8478 24.6035 12.3973 24.0539C12.9468 23.5044 13.647 23.1302 14.4092 22.9786C15.1714 22.827 15.9615 22.9048 16.6794 23.2022C17.3974 23.4996 18.0111 24.0032 18.4429 24.6494C18.8746 25.2955 19.1051 26.0552 19.1051 26.8324C19.104 27.8742 18.6896 28.873 17.953 29.6096C17.2163 30.3463 16.2175 30.7606 15.1758 30.7617ZM15.1758 24.9545C14.8042 24.9545 14.441 25.0647 14.132 25.2712C13.8231 25.4776 13.5823 25.771 13.4402 26.1143C13.298 26.4576 13.2608 26.8354 13.3334 27.1998C13.4059 27.5642 13.5849 27.8989 13.8477 28.1616C14.1105 28.4243 14.4453 28.6032 14.8097 28.6756C15.1741 28.748 15.5519 28.7107 15.8951 28.5684C16.2384 28.4261 16.5317 28.1852 16.738 27.8762C16.9444 27.5672 17.0544 27.2039 17.0543 26.8324C17.0537 26.3344 16.8556 25.857 16.5034 25.5049C16.1512 25.1528 15.6737 24.9549 15.1758 24.9545Z" fill="white"/>
<path d="M25.185 30.7617C24.4078 30.7617 23.6481 30.5312 23.002 30.0995C22.3558 29.6677 21.8522 29.054 21.5548 28.3361C21.2574 27.6181 21.1796 26.828 21.3312 26.0658C21.4828 25.3036 21.857 24.6035 22.4065 24.0539C22.9561 23.5044 23.6562 23.1302 24.4184 22.9786C25.1806 22.827 25.9707 22.9048 26.6887 23.2022C27.4066 23.4996 28.0203 24.0032 28.4521 24.6494C28.8838 25.2955 29.1143 26.0552 29.1143 26.8324C29.1132 27.8742 28.6989 28.873 27.9622 29.6096C27.2256 30.3463 26.2268 30.7606 25.185 30.7617ZM25.185 24.9545C24.8134 24.9545 24.4502 25.0647 24.1413 25.2712C23.8323 25.4776 23.5915 25.771 23.4494 26.1143C23.3072 26.4576 23.2701 26.8354 23.3426 27.1998C23.4151 27.5642 23.5941 27.8989 23.8569 28.1616C24.1197 28.4243 24.4545 28.6032 24.8189 28.6756C25.1834 28.748 25.5611 28.7107 25.9043 28.5684C26.2476 28.4261 26.5409 28.1852 26.7472 27.8762C26.9536 27.5672 27.0636 27.2039 27.0635 26.8324C27.0629 26.3344 26.8648 25.857 26.5126 25.5049C26.1605 25.1528 25.683 24.9549 25.185 24.9545Z" fill="white"/>
<path d="M10.8063 11.3128C10.591 11.3128 10.3812 11.245 10.2067 11.1191C10.0321 10.9933 9.90151 10.8156 9.8335 10.6114L8.07598 5.33203H4.83301C4.56106 5.33203 4.30025 5.224 4.10795 5.0317C3.91565 4.8394 3.80762 4.57859 3.80762 4.30664C3.80762 4.03469 3.91565 3.77388 4.10795 3.58158C4.30025 3.38928 4.56106 3.28125 4.83301 3.28125H8.81836C9.0336 3.28127 9.24337 3.34902 9.41796 3.4749C9.59255 3.60078 9.7231 3.77841 9.79111 3.98262L11.7824 9.96338C11.8338 10.1175 11.8477 10.2816 11.8232 10.4422C11.7987 10.6028 11.7364 10.7552 11.6414 10.887C11.5464 11.0188 11.4214 11.1261 11.2768 11.2001C11.1322 11.2742 10.9721 11.3128 10.8097 11.3128H10.8063Z" fill="white"/>
</svg>
