<svg width="12.753052" height="9.991699" viewBox="0 0 12.7531 9.9917" fill="none" xmlns="http://www.w3.org/2000/svg" xmlns:xlink="http://www.w3.org/1999/xlink">
	<desc>
			Created with Pixso.
	</desc>
	<defs/>
	<path id="Arrow 3" d="M1.81372 4.99585L5.526 1.28345C5.823 0.986572 5.823 0.519775 5.526 0.2229C5.229 -0.0742188 4.76233 -0.0742188 4.46533 0.2229L0.222778 4.46558C-0.0742188 4.76245 -0.0742188 5.22925 0.222778 5.52612L4.46533 9.7688C4.76233 10.0659 5.229 10.0659 5.526 9.7688C5.823 9.47192 5.823 9.00513 5.526 8.70825L1.81372 4.99585Z" fill="#222222" fill-opacity="1.000000" fill-rule="nonzero"/>
	<path id="Arrow 3" d="M12.7531 4.24585L0.753052 4.24585L0.753052 5.74585L12.7531 5.74585L12.7531 4.24585ZM1.81372 4.99585L5.526 1.28345C5.823 0.986572 5.823 0.519775 5.526 0.2229C5.229 -0.0742188 4.76233 -0.0742188 4.46533 0.2229L0.222778 4.46558C-0.0742188 4.76245 -0.0742188 5.22925 0.222778 5.52612L4.46533 9.7688C4.76233 10.0659 5.229 10.0659 5.526 9.7688C5.823 9.47192 5.823 9.00513 5.526 8.70825L1.81372 4.99585Z" fill="#222222" fill-opacity="1.000000" fill-rule="evenodd"/>
</svg>
