<svg width="12.753052" height="9.991699" viewBox="0 0 12.7531 9.9917" fill="none" xmlns="http://www.w3.org/2000/svg" xmlns:xlink="http://www.w3.org/1999/xlink">
	<desc>
			Created with Pixso.
	</desc>
	<defs/>
	<path id="Arrow 3" d="M10.9393 4.99585L7.22705 1.28345C6.93005 0.986572 6.93005 0.519775 7.22705 0.2229C7.52405 -0.0742188 7.99072 -0.0742188 8.28772 0.2229L12.5303 4.46558C12.8273 4.76245 12.8273 5.22925 12.5303 5.52612L8.28772 9.7688C7.99072 10.0659 7.52405 10.0659 7.22705 9.7688C6.93005 9.47192 6.93005 9.00513 7.22705 8.70825L10.9393 4.99585Z" fill="#FFFFFF" fill-opacity="1.000000" fill-rule="nonzero"/>
	<path id="Arrow 3" d="M0 4.24585L12 4.24585L12 5.74585L0 5.74585L0 4.24585ZM10.9393 4.99585L7.22705 1.28345C6.93005 0.986572 6.93005 0.519775 7.22705 0.2229C7.52405 -0.0742188 7.99072 -0.0742188 8.28772 0.2229L12.5303 4.46558C12.8273 4.76245 12.8273 5.22925 12.5303 5.52612L8.28772 9.7688C7.99072 10.0659 7.52405 10.0659 7.22705 9.7688C6.93005 9.47192 6.93005 9.00513 7.22705 8.70825L10.9393 4.99585Z" fill="#FFFFFF" fill-opacity="1.000000" fill-rule="evenodd"/>
</svg>
