<svg width="24" height="23" viewBox="0 0 24 23" fill="none" xmlns="http://www.w3.org/2000/svg">
<path d="M9.22899 0C4.13243 0 0 4.00267 0 8.93924C0 13.8758 4.13243 17.8785 9.22903 17.8785C11.1889 17.8785 13.0064 17.2864 14.5004 16.2778L14.5015 16.2768L21.3462 22.9065C21.4732 23.0296 21.6752 23.0327 21.8055 22.9065L23.6502 21.1197C23.7772 20.9967 23.7707 20.7927 23.6491 20.6749L16.8055 14.0462C17.8467 12.598 18.458 10.8375 18.458 8.93924C18.458 4.00267 14.3256 0 9.22899 0ZM9.22899 15.7751C5.33108 15.7751 2.1715 12.7148 2.1715 8.93924C2.1715 5.16372 5.33111 2.10336 9.22899 2.10336C13.1269 2.10336 16.2865 5.16372 16.2865 8.93924C16.2865 12.7148 13.1269 15.7751 9.22899 15.7751Z" fill="#C5C5C5"/>
</svg>
