<svg xmlns="http://www.w3.org/2000/svg" viewBox="0 0 40" fill="none"><path fill="currentColor" d="M15 2.308c-3.444 0-3.878.016-5.23.076-1.354.063-2.276.276-3.084.59a6.214 6.214 0 0 0-2.248 1.464 6.23 6.23 0 0 0-1.464 2.249c-.314.805-.528 1.729-.59 3.077-.06 1.357-.076 1.788-.076 5.238 0 3.446.015 3.877.076 5.23.063 1.352.276 2.274.59 3.081a6.233 6.233 0 0 0 1.464 2.249 6.193 6.193 0 0 0 2.247 1.464c.809.314 1.73.528 3.08.59 1.356.06 1.787.076 5.235.076 3.448 0 3.877-.016 5.232-.076 1.35-.063 2.275-.276 3.083-.59a6.212 6.212 0 0 0 2.246-1.464 6.234 6.234 0 0 0 1.465-2.249c.312-.807.527-1.729.59-3.08.06-1.354.076-1.785.076-5.233 0-3.448-.016-3.88-.076-5.234-.063-1.35-.278-2.274-.59-3.08a6.228 6.228 0 0 0-1.465-2.248 6.205 6.205 0 0 0-2.248-1.464c-.809-.314-1.732-.528-3.082-.59-1.355-.06-1.785-.076-5.234-.076h.005H15Zm-1.138 2.287h1.14c3.388 0 3.79.012 5.127.073 1.238.056 1.91.264 2.358.437.592.23 1.015.506 1.46.95.444.444.718.866.948 1.46.175.446.38 1.118.436 2.356.062 1.337.075 1.739.075 5.126 0 3.387-.013 3.79-.075 5.128-.055 1.237-.263 1.908-.436 2.355a3.918 3.918 0 0 1-.95 1.459 3.92 3.92 0 0 1-1.46.948c-.444.175-1.117.381-2.356.438-1.337.06-1.739.075-5.128.075-3.388 0-3.791-.014-5.129-.075-1.237-.057-1.908-.263-2.356-.438a3.93 3.93 0 0 1-1.46-.948 3.934 3.934 0 0 1-.951-1.46c-.173-.446-.381-1.119-.437-2.356-.06-1.338-.073-1.739-.073-5.13 0-3.388.013-3.788.073-5.125.058-1.238.264-1.91.438-2.358.23-.592.506-1.015.95-1.46a3.922 3.922 0 0 1 1.46-.948c.448-.175 1.119-.381 2.356-.438 1.171-.054 1.625-.07 3.99-.072v.003Zm7.914 2.107a1.523 1.523 0 1 0 0 3.046 1.523 1.523 0 0 0 0-3.046Zm-6.774 1.78a6.52 6.52 0 1 0-.204 13.038 6.52 6.52 0 0 0 .204-13.038Zm0 2.287a4.231 4.231 0 1 1 0 8.463 4.231 4.231 0 0 1 0-8.463Z"/></svg>