<svg xmlns="http://www.w3.org/2000/svg" viewBox="0 0 40" fill="none">
    <path fill="currentColor" d="M20.903 17.575c-.319-.164-1.91-.943-2.206-1.049-.296-.111-.512-.164-.726.164-.217.326-.832 1.05-1.026 1.269-.187.217-.378.243-.697.082-1.898-.95-3.144-1.693-4.395-3.84-.33-.572.332-.531.95-1.764.105-.217.052-.402-.03-.566-.082-.164-.726-1.752-.996-2.4-.26-.63-.53-.541-.726-.553-.188-.012-.402-.012-.618-.012-.217 0-.566.082-.862.402-.296.325-1.13 1.107-1.13 2.695 0 1.588 1.157 3.126 1.315 3.343.164.216 2.276 3.474 5.52 4.878 2.05.884 2.853.96 3.878.808.624-.093 1.91-.78 2.177-1.538.267-.756.267-1.403.188-1.538-.08-.143-.296-.226-.616-.38Z"/><path fill="currentColor" d="M27.105 9.914a13.128 13.128 0 0 0-2.82-4.198 13.02 13.02 0 0 0-4.2-2.821A13.063 13.063 0 0 0 15 1.875h-.059A13.094 13.094 0 0 0 5.67 5.754a13.006 13.006 0 0 0-2.79 4.184 13.13 13.13 0 0 0-1.004 5.123 13.166 13.166 0 0 0 1.406 5.857v4.453c0 .744.604 1.348 1.348 1.348h4.456a13.166 13.166 0 0 0 5.856 1.406h.062c1.755 0 3.457-.34 5.06-1.005a13.022 13.022 0 0 0 4.183-2.789 13.095 13.095 0 0 0 3.879-9.272 13.076 13.076 0 0 0-1.02-5.145ZM22.68 22.746a10.84 10.84 0 0 1-7.68 3.152h-.049a10.937 10.937 0 0 1-5.071-1.274l-.246-.132H5.508v-4.125l-.132-.246A10.937 10.937 0 0 1 4.1 15.05 10.831 10.831 0 0 1 7.254 7.32a10.816 10.816 0 0 1 7.699-3.22h.05c1.465 0 2.886.285 4.224.847a10.829 10.829 0 0 1 3.487 2.344 10.853 10.853 0 0 1 3.19 7.70"58 10.857 10.857 0 0 1-3.225 7.696Z"/></svg>