<svg xmlns="http://www.w3.org/2000/svg" viewBox="0 0 40" fill="none"><path fill="currentColor" d="M28.125 14.918c0-.064 0-.138-.003-.223-.003-.237-.009-.504-.015-.788a44.03 44.03 0 0 0-.128-2.4c-.088-1.057-.217-1.939-.393-2.6a4.088 4.088 0 0 0-2.88-2.886c-.829-.223-2.452-.36-4.737-.446a137.8 137.8 0 0 0-3.413-.082c-.408-.006-.786-.009-1.125-.012h-.862c-.34.003-.717.006-1.125.012-1.163.015-2.326.041-3.413.082-2.285.088-3.91.226-4.737.446a4.083 4.083 0 0 0-2.88 2.885c-.179.662-.305 1.544-.393 2.602a44.121 44.121 0 0 0-.128 2.4c-.01.283-.012.55-.015.787 0 .085-.003.159-.003.223v.164c0 .064 0 .138.003.223.003.237.009.504.015.788.023.817.064 1.632.128 2.4.088 1.057.217 1.939.393 2.6a4.082 4.082 0 0 0 2.88 2.887c.826.222 2.452.36 4.737.445 1.087.04 2.25.067 3.413.082.408.006.785.009 1.125.012h.862c.34-.003.717-.006 1.125-.012 1.163-.015 2.326-.041 3.413-.082 2.285-.088 3.91-.226 4.737-.445a4.077 4.077 0 0 0 2.88-2.886c.179-.662.305-1.544.393-2.602.064-.767.105-1.582.128-2.4.01-.283.012-.55.015-.787 0-.085.003-.159.003-.223v-.164Zm-2.11.152c0 .062 0 .13-.002.208-.003.229-.01.48-.015.753-.02.78-.062 1.559-.123 2.283-.08.943-.19 1.716-.328 2.235a1.972 1.972 0 0 1-1.389 1.392c-.615.164-2.165.295-4.271.375a133.411 133.411 0 0 1-4.468.09h-.838l-1.107-.008a133.75 133.75 0 0 1-3.36-.082c-2.107-.083-3.66-.211-4.272-.375a1.977 1.977 0 0 1-1.389-1.392c-.138-.519-.249-1.292-.328-2.235-.062-.724-.1-1.503-.123-2.283-.009-.272-.012-.527-.015-.753 0-.079-.003-.15-.003-.208v-.14c0-.062 0-.13.003-.208.003-.229.01-.48.015-.753.02-.78.061-1.559.123-2.282.08-.944.19-1.717.328-2.236A1.971 1.971 0 0 1 5.842 8.06c.615-.164 2.165-.296 4.271-.375a133.078 133.078 0 0 1 4.468-.091h.838l1.107.009c1.146.014 2.291.04 3.36.082 2.107.082 3.66.21 4.272.375a1.976 1.976 0 0 1 1.389 1.391c.138.519.249 1.292.328 2.236.061.723.1 1.503.123 2.282.009.272.012.527.015.753 0 .079.003.15.003.208v.14Zm-13.622 3.856 6.796-3.955-6.796-3.897v7.852Z"/></svg>