<svg width="25" height="25" viewBox="0 0 25 25" fill="none" xmlns="http://www.w3.org/2000/svg">
<circle cx="12.5" cy="12.5" r="11.5" stroke="#351C13" stroke-width="2"/>
<path d="M15.6193 9.09091V10.7955H9.45455V9.09091H15.6193ZM11.1449 20V7.8267C11.1449 7.14489 11.294 6.57907 11.5923 6.12926C11.8906 5.67472 12.286 5.33617 12.7784 5.11364C13.2708 4.88636 13.8059 4.77273 14.3835 4.77273C14.8097 4.77273 15.1742 4.80824 15.4773 4.87926C15.7803 4.94555 16.0052 5.0071 16.152 5.06392L15.6548 6.78267C15.5554 6.75426 15.4276 6.72112 15.2713 6.68324C15.1151 6.64062 14.9257 6.61932 14.7031 6.61932C14.187 6.61932 13.8177 6.74716 13.5952 7.00284C13.3774 7.25852 13.2685 7.62784 13.2685 8.1108V20H11.1449Z" fill="#351C13"/>
</svg>
