<svg width="25" height="25" viewBox="0 0 25 25" fill="none" xmlns="http://www.w3.org/2000/svg">
<path d="M12.4999 0C5.60752 0 0 5.60752 0 12.5001C0 19.3927 5.60752 25.0002 12.4999 25.0002C19.3925 25.0002 25 19.3927 25 12.5001C25 5.60752 19.3923 0 12.4999 0ZM12.4999 23.7673C6.28724 23.7673 1.23287 18.7128 1.23287 12.5001C1.23287 6.28745 6.28724 1.23287 12.4999 1.23287C18.7126 1.23287 23.7671 6.28745 23.7671 12.5001C23.7671 18.7128 18.7126 23.7673 12.4999 23.7673Z" fill="#351C13"/>
<path d="M16.4113 6.47977H8.58869C7.43493 6.47977 6.49609 7.41839 6.49609 8.57236V16.4309C6.49609 17.5847 7.43472 18.5235 8.58869 18.5235H16.4111C17.5648 18.5235 18.5037 17.5849 18.5037 16.4309V8.57216C18.5037 7.41839 17.565 6.47977 16.4113 6.47977ZM14.3094 12.4793C14.3094 13.4771 13.4978 14.2888 12.5 14.2888C11.5022 14.2888 10.6905 13.4771 10.6905 12.4793C10.6905 11.9843 10.8907 11.5356 11.2137 11.2087H13.7861C14.1095 11.5356 14.3094 11.9843 14.3094 12.4793ZM14.834 8.15401H16.6669V10.0422H14.834V8.15401ZM16.4113 17.2904H8.58869C8.11465 17.2904 7.72897 16.9047 7.72897 16.4307V11.2087H9.73937C9.5604 11.596 9.45766 12.0254 9.45766 12.4793C9.45766 14.1571 10.8225 15.5217 12.5 15.5217C14.1775 15.5217 15.5423 14.1569 15.5423 12.4793C15.5423 12.0254 15.4396 11.596 15.2606 11.2087H17.2708V16.4307C17.2708 16.9047 16.8851 17.2904 16.4113 17.2904Z" fill="#351C13"/>
</svg>
