<svg width="21" height="21" viewBox="0 0 21 21" fill="none" xmlns="http://www.w3.org/2000/svg">
<path d="M8.16432 0C3.65706 0 0.00244141 3.65461 0.00244141 8.16191C0.00244141 12.6692 3.65705 16.3238 8.16435 16.3238C9.89759 16.3238 11.505 15.7832 12.8263 14.8624L12.8272 14.8614L18.8805 20.9147C18.9928 21.027 19.1714 21.0299 19.2866 20.9147L20.9181 19.2832C21.0304 19.1709 21.0246 18.9846 20.9171 18.8771L14.8648 12.8248C15.7856 11.5025 16.3262 9.89511 16.3262 8.16191C16.3262 3.65461 12.6716 0 8.16432 0ZM8.16432 14.4034C4.71711 14.4034 1.92286 11.6091 1.92286 8.16191C1.92286 4.7147 4.71714 1.92046 8.16432 1.92046C11.6115 1.92046 14.4058 4.7147 14.4058 8.16191C14.4058 11.6091 11.6115 14.4034 8.16432 14.4034Z" fill="#EDE0DF"/>
</svg>
