<svg width="17" height="19" viewBox="0 0 17 19" fill="none" xmlns="http://www.w3.org/2000/svg">
<path d="M8.5 0C5.22397 0 2.55 2.68677 2.55 5.97847C2.55 8.03578 3.59649 9.86628 5.17969 10.9427C2.14762 12.2493 0 15.2718 0 18.7895H1.7C1.7 15.0054 4.73393 11.9569 8.5 11.9569C12.2661 11.9569 15.3 15.0054 15.3 18.7895H17C17 15.2718 14.8524 12.2493 11.8203 10.9427C13.4035 9.86628 14.45 8.03578 14.45 5.97847C14.45 2.68677 11.776 0 8.5 0ZM8.5 1.70813C10.8573 1.70813 12.75 3.60991 12.75 5.97847C12.75 8.34703 10.8573 10.2488 8.5 10.2488C6.14272 10.2488 4.25 8.34703 4.25 5.97847C4.25 3.60991 6.14272 1.70813 8.5 1.70813Z" fill="white"/>
</svg>
