<svg width="20" height="21" viewBox="0 0 20 21" fill="none" xmlns="http://www.w3.org/2000/svg">
<path d="M9.50244 0C5.841 0 2.85244 3.00286 2.85244 6.68182C2.85244 8.98117 4.02204 11.027 5.7915 12.2301C2.40272 13.6904 0.00244141 17.0685 0.00244141 21H1.90244C1.90244 16.7707 5.29331 13.3636 9.50244 13.3636C13.7116 13.3636 17.1024 16.7707 17.1024 21H19.0024C19.0024 17.0685 16.6022 13.6904 13.2134 12.2301C14.9828 11.027 16.1524 8.98117 16.1524 6.68182C16.1524 3.00286 13.1639 0 9.50244 0ZM9.50244 1.90909C12.137 1.90909 14.2524 4.03461 14.2524 6.68182C14.2524 9.32903 12.137 11.4545 9.50244 11.4545C6.86784 11.4545 4.75244 9.32903 4.75244 6.68182C4.75244 4.03461 6.86784 1.90909 9.50244 1.90909Z" fill="#EDE0DF"/>
</svg>
