<svg width="165.000000" height="45.000000" viewBox="0 0 165 45" fill="none" xmlns="http://www.w3.org/2000/svg" xmlns:xlink="http://www.w3.org/1999/xlink">
	<desc>
			Created with Pixso.
	</desc>
	<defs/>
	<path d="M23.9 7.03C23.9 7.8 23.27 8.43 22.5 8.43C21.72 8.43 21.09 7.8 21.09 7.03C21.09 6.25 21.72 5.62 22.5 5.62C23.27 5.62 23.9 6.25 23.9 7.03ZM10.56 12.55C10.29 12.28 10.15 11.92 10.15 11.56C10.15 11.2 10.29 10.84 10.56 10.56C11.11 10.01 12 10.01 12.55 10.56C12.83 10.84 12.96 11.2 12.96 11.56C12.96 11.92 12.83 12.28 12.55 12.55C12 13.1 11.11 13.1 10.56 12.55ZM34.43 12.55C33.88 13.1 32.99 13.1 32.44 12.55C32.16 12.28 32.03 11.92 32.03 11.56C32.03 11.2 32.16 10.84 32.44 10.56C32.99 10.01 33.88 10.01 34.43 10.56C34.7 10.84 34.84 11.2 34.84 11.56C34.84 11.92 34.7 12.28 34.43 12.55ZM33.75 22.5C33.75 28.71 28.71 33.75 22.5 33.75C16.28 33.75 11.25 28.71 11.25 22.5C11.25 16.28 16.28 11.25 22.5 11.25C28.71 11.25 33.75 16.28 33.75 22.5ZM7.03 23.9C6.25 23.9 5.62 23.27 5.62 22.5C5.62 21.72 6.25 21.09 7.03 21.09C7.8 21.09 8.43 21.72 8.43 22.5C8.43 23.27 7.8 23.9 7.03 23.9ZM37.96 23.9C37.19 23.9 36.56 23.27 36.56 22.5C36.56 21.72 37.19 21.09 37.96 21.09C38.74 21.09 39.37 21.72 39.37 22.5C39.37 23.27 38.74 23.9 37.96 23.9ZM32.44 34.43C32.16 34.15 32.03 33.79 32.03 33.43C32.03 33.07 32.16 32.71 32.44 32.44C32.99 31.89 33.88 31.89 34.43 32.44C34.7 32.71 34.84 33.07 34.84 33.43C34.84 33.79 34.7 34.15 34.43 34.43C33.88 34.98 32.99 34.98 32.44 34.43ZM12.55 34.43C12 34.98 11.11 34.98 10.56 34.43C10.29 34.15 10.15 33.79 10.15 33.43C10.15 33.07 10.29 32.71 10.56 32.44C11.11 31.89 12 31.89 12.55 32.44C12.83 32.71 12.96 33.07 12.96 33.43C12.96 33.79 12.83 34.15 12.55 34.43ZM23.9 37.96C23.9 38.74 23.27 39.37 22.5 39.37C21.72 39.37 21.09 38.74 21.09 37.96C21.09 37.19 21.72 36.56 22.5 36.56C23.27 36.56 23.9 37.19 23.9 37.96Z" fill="#FFC700" fill-opacity="1.000000" fill-rule="evenodd"/>
	<path d="M115.14 13L116.49 13Q116.49 13.59 116.25 14.06Q116.08 14.38 115.8 14.63Q115.73 14.7 115.66 14.75Q114.99 15.27 113.93 15.27C113.15 15.27 112.53 15.06 112.07 14.63Q111.8 14.38 111.64 14.08Q111.38 13.6 111.38 13L112.74 13C112.74 13.32 112.83 13.6 113.01 13.84Q113.04 13.88 113.07 13.92L113.07 13.92Q113.35 14.21 113.93 14.21C114.36 14.21 114.67 14.09 114.85 13.84C115.04 13.6 115.14 13.32 115.14 13ZM150.09 22.49C150.09 23.83 149.85 24.98 149.37 25.95C148.89 26.93 148.23 27.68 147.39 28.2Q147.1 28.39 146.78 28.53Q145.75 29 144.51 29C143.44 29 142.48 28.73 141.64 28.2C140.8 27.68 140.14 26.93 139.66 25.95C139.17 24.98 138.93 23.83 138.93 22.49C138.93 21.16 139.17 20 139.66 19.03C140.14 18.06 140.8 17.31 141.64 16.78C142.48 16.25 143.44 15.99 144.51 15.99Q145.75 15.99 146.78 16.45L146.78 16.45Q147.1 16.59 147.39 16.78C148.23 17.31 148.89 18.06 149.37 19.03C149.85 20 150.09 21.16 150.09 22.49ZM47 17.52L47 16.16L56.47 16.16L56.47 17.52L52.5 17.52L52.5 28.82L50.97 28.82L50.97 17.52L47 17.52ZM58.84 28.82L58.84 16.16L66.46 16.16L66.46 17.52L60.37 17.52L60.37 21.8L66.07 21.8L66.07 23.16L60.37 23.16L60.37 27.46L66.56 27.46L66.56 28.82L58.84 28.82ZM78.68 16.16L78.68 28.82L77.15 28.82L77.15 17.52L70.78 17.52L70.78 28.82L69.25 28.82L69.25 16.16L78.68 16.16ZM80.68 28.82L80.68 27.41L81.05 27.41C81.57 27.41 81.98 27.24 82.27 26.91C82.57 26.57 82.78 26.02 82.9 25.27C83.04 24.51 83.12 23.51 83.17 22.27L83.39 16.16L91.09 16.16L91.09 28.82L89.56 28.82L89.56 17.52L84.85 17.52L84.65 22.57C84.6 23.89 84.48 25.02 84.29 25.95Q84 27.35 83.27 28.09C82.78 28.58 82.08 28.82 81.15 28.82L80.68 28.82ZM95.68 21.48L98.89 21.48C99.8 21.48 100.56 21.63 101.18 21.92C101.81 22.22 102.28 22.64 102.6 23.18C102.92 23.72 103.09 24.35 103.09 25.09C103.09 25.82 102.92 26.47 102.6 27.03C102.28 27.59 101.81 28.03 101.18 28.35C100.56 28.66 99.8 28.82 98.89 28.82L94.15 28.82L94.15 16.16L95.68 16.16L95.68 21.48ZM105.85 16.16L105.85 28.82L104.32 28.82L104.32 16.16L105.85 16.16ZM108.92 16.16L110.42 16.16L110.42 26.13L110.54 26.13L117.46 16.16L118.94 16.16L118.94 28.82L117.41 28.82L117.41 18.88L117.28 18.88L110.4 28.82L108.92 28.82L108.92 16.16ZM136.34 16.16L136.34 28.82L134.81 28.82L134.81 17.52L128.44 17.52L128.44 28.82L126.91 28.82L126.91 16.16L136.34 16.16ZM151.58 28.82L151.58 27.41L151.95 27.41C152.48 27.41 152.89 27.24 153.18 26.91C153.47 26.57 153.68 26.02 153.81 25.27C153.94 24.51 154.03 23.51 154.07 22.27L154.29 16.16L162 16.16L162 28.82L160.47 28.82L160.47 17.52L155.75 17.52L155.55 22.57C155.5 23.89 155.38 25.02 155.19 25.95C155 26.88 154.66 27.6 154.17 28.09C153.69 28.58 152.98 28.82 152.05 28.82L151.58 28.82ZM148.61 22.49Q148.61 20.85 148.06 19.72C147.7 18.96 147.21 18.39 146.59 18C145.97 17.62 145.28 17.42 144.51 17.42C143.75 17.42 143.05 17.62 142.43 18C141.82 18.39 141.32 18.96 140.96 19.72Q140.42 20.85 140.42 22.49Q140.42 24.14 140.96 25.27C141.32 26.02 141.82 26.59 142.43 26.98C143.05 27.37 143.75 27.56 144.51 27.56C145.28 27.56 145.97 27.37 146.59 26.98C147.21 26.59 147.7 26.02 148.06 25.27Q148.61 24.14 148.61 22.49ZM95.68 22.84L95.68 27.49L98.89 27.49C99.47 27.49 99.95 27.37 100.35 27.14C100.76 26.91 101.06 26.6 101.27 26.24C101.48 25.87 101.58 25.48 101.58 25.06C101.58 24.46 101.35 23.94 100.88 23.5C100.42 23.06 99.75 22.84 98.89 22.84L95.68 22.84Z" fill="#000000" fill-opacity="1.000000" fill-rule="evenodd"/>
</svg>
