<svg width="40.000000" height="40.000000" viewBox="0 0 40 40" fill="none" xmlns="http://www.w3.org/2000/svg" xmlns:xlink="http://www.w3.org/1999/xlink">
	<desc>
			Created with Pixso.
	</desc>
	<defs>
		<clipPath id="clip5_598">
			<rect id="Frame" width="40.000000" height="40.000000" fill="white" fill-opacity="0"/>
		</clipPath>
	</defs>
	<rect id="Frame" width="40.000000" height="40.000000" fill="#FFFFFF" fill-opacity="0"/>
	<g clip-path="url(#clip5_598)">
		<path id="Vector" d="M22.9375 2.9375L7.17102 2.9375C6.45531 2.9375 5.87508 3.5177 5.87508 4.2334C5.87508 4.9491 6.45531 5.52942 7.17102 5.52942L13.9074 5.52942C12.4888 6.41809 11.2075 7.50928 10.1043 8.76843L1.29594 8.76843C0.580235 8.76855 0 9.34888 0 10.0646C0 10.7803 0.580235 11.3605 1.29594 11.3605L8.22953 11.3605C6.73438 13.8961 5.875 16.8494 5.875 19.9999C5.875 23.6659 7.03742 27.0654 9.01258 29.8497L5.33555 29.8497C4.61984 29.8497 4.03961 30.4299 4.03961 31.1456C4.03961 31.8613 4.61984 32.4415 5.33555 32.4415L11.2745 32.4415C12.0845 33.2014 12.9662 33.8809 13.9074 34.4703L1.42961 34.4703C0.713906 34.4703 0.133672 35.0507 0.133672 35.7664C0.133672 36.4821 0.713906 37.0623 1.42961 37.0623L22.9375 37.0623C32.3459 37.0623 39.9999 29.4081 39.9999 19.9999C39.9999 10.5917 32.3458 2.9375 22.9375 2.9375ZM22.9375 34.4706C14.9584 34.4706 8.46703 27.9791 8.46703 20C8.46703 12.0209 14.9584 5.52942 22.9375 5.52942C30.9166 5.52942 37.408 12.0209 37.408 19.9999C37.408 27.979 30.9166 34.4706 22.9375 34.4706Z" fill="#D10014" fill-opacity="1.000000" fill-rule="nonzero"/>
		<path id="Vector" d="M22.9375 9.41467C17.1007 9.41467 12.3521 14.1632 12.3521 20.0001C12.3521 23.4807 14.0411 26.5742 16.6424 28.5048C16.6662 28.5249 16.6899 28.5452 16.7156 28.5637C16.7445 28.5847 16.7741 28.6044 16.804 28.6227C18.5356 29.8579 20.6531 30.5853 22.9375 30.5853C25.2219 30.5853 27.3394 29.8579 29.071 28.6227C29.101 28.6044 29.1306 28.5847 29.1595 28.5637C29.1851 28.545 29.2088 28.5248 29.2327 28.5048C31.8338 26.5742 33.5229 23.4808 33.5229 20.0001C33.5229 14.1633 28.7743 9.41467 22.9375 9.41467ZM24.2335 12.1123C26.7625 12.5264 28.896 14.1311 30.0374 16.3306L26.6814 17.421C26.0985 16.5773 25.2383 15.9399 24.2335 15.6406L24.2335 12.1123L24.2335 12.1123ZM24.8942 20C24.8942 21.0789 24.0164 21.9567 22.9375 21.9567C21.8586 21.9567 20.9809 21.079 20.9809 20C20.9809 18.921 21.8586 18.0433 22.9375 18.0433C24.0164 18.0433 24.8942 18.921 24.8942 20ZM21.6415 12.1123L21.6415 15.6406C20.6366 15.9399 19.7765 16.5773 19.1935 17.421L15.8377 16.3306C16.9791 14.1311 19.1126 12.5264 21.6415 12.1123ZM17.2553 25.6162C15.8273 24.1715 14.9441 22.187 14.9441 20C14.9441 19.5905 14.9752 19.188 15.0349 18.7949L18.3918 19.8857C18.3909 19.9238 18.3888 19.9617 18.3888 20C18.3888 21.0387 18.7396 21.9967 19.3279 22.7633L17.2553 25.6162ZM22.9375 27.9934C21.6484 27.9934 20.4298 27.6864 19.3504 27.142L21.4235 24.2887C21.8974 24.4564 22.4068 24.5487 22.9375 24.5487C23.4682 24.5487 23.9776 24.4564 24.4515 24.2887L26.5246 27.142C25.4453 27.6863 24.2267 27.9934 22.9375 27.9934ZM28.6197 25.6162L26.5471 22.7634C27.1353 21.9968 27.4861 21.0388 27.4861 20.0001C27.4861 19.9617 27.4842 19.924 27.4831 19.8857L30.8401 18.795C30.9006 19.1938 30.931 19.5967 30.9309 20.0001C30.931 22.187 30.0478 24.1714 28.6197 25.6162Z" fill="#D10014" fill-opacity="1.000000" fill-rule="nonzero"/>
	</g>
</svg>
